<svg width="17" height="18" viewBox="0 0 17 18" fill="none" xmlns="http://www.w3.org/2000/svg">
<path d="M7.6148 16.2696C6.50467 15.7585 5.24631 14.8267 3.94608 13.9631C3.20795 13.473 2.50833 12.9357 1.97006 12.2273C1.41418 11.496 1.36466 10.8404 1.78677 10.1841C2.1863 9.56302 2.88377 9.29049 3.73368 9.4647C4.59218 9.64078 5.42426 9.66541 6.29199 9.45799C7.74465 9.11036 9.06769 10.1171 9.12682 11.5859C9.15993 12.4067 9.62154 12.9943 10.0756 13.6031C10.437 14.0878 10.6572 14.6029 10.5022 15.2128C10.1793 16.4803 9.35141 16.8603 7.6148 16.2696Z" fill="white"/>
<path d="M10.5028 4.87435C10.2405 5.54228 9.92774 6.17727 9.34901 6.64191C8.52516 7.30333 7.65645 7.14789 7.11736 6.24345C6.20242 4.70807 6.70819 2.89493 8.26114 2.14119C9.46568 1.55681 10.4305 2.04789 10.647 3.35356C10.7339 3.8751 10.6516 4.37763 10.5028 4.87435Z" fill="white"/>
<path d="M10.2837 6.49179C10.7312 5.5755 11.3661 4.63189 12.5522 4.2276C13.7287 3.8267 14.5885 4.43387 14.6414 5.66973C14.7186 7.46929 13.1593 8.89344 11.3527 8.67423C10.3042 8.54704 9.85108 7.72226 10.2837 6.49179Z" fill="white"/>
<path d="M6.04092 7.08086C5.70126 8.05625 5.04457 8.69402 3.98175 8.82885C2.82307 8.9757 1.91749 7.96524 2.25509 6.86968C2.58867 5.78744 3.2951 4.95706 4.32131 4.43937C5.03756 4.07804 5.54778 4.27321 5.90917 4.99622C6.24597 5.67013 6.29356 6.36963 6.04092 7.08086Z" fill="white"/>
<path d="M14.0144 11.9591C13.775 12.6015 13.3207 13.3565 12.4877 13.8096C11.6971 14.2397 11.0741 13.9867 10.8017 13.123C10.4936 12.1479 10.5832 11.1897 11.0922 10.3146C11.5376 9.54884 12.8866 9.18643 13.6654 9.55964C14.2915 9.85918 14.4522 10.6914 14.0144 11.9591Z" fill="white"/>
</svg>
